#!OML:ASF H:\Dans Jumps\Project 1\Capture day 1\Session 1\subject.ASF
:FULLY-SPECIFIED
:DEGREES
324
root 0.261739 22.2458 -9.30357 9.70472 1.83894 -0.559289
lowerback 0.347995 -0.954901 -2.99193
upperback 2.43557 -1.28217 1.97618
thorax 2.42131 -0.726752 3.69101
lowerneck -10.4208 0.386312 -3.42952
upperneck 27.4032 1.08213 0.768937
head 10.4523 0.233454 0.99231
rclavicle -4.07509e-015 6.75868e-015
rhumerus -22.7975 -2.83825 -79.7211
rradius 31.4088
rwrist 26.7968
rhand -17.6071 -22.9193
rfingers 7.12502
rthumb 8.64948 -52.7221
lclavicle -4.07509e-015 6.75868e-015
lhumerus -13.7212 -19.3417 84.9082
lradius 31.9433
lwrist 28.8617
lhand -29.023 -12.9635
lfingers 7.12502
lthumb -2.37389 17.003
rfemur -15.174 -8.92725 18.3965
rtibia 35.1416
rfoot 28.6032 -8.33997
rtoes 27.8404
lfemur -18.599 9.0604 -16.1899
ltibia 33.2564
lfoot 31.682 -4.27588
ltoes 8.13522
325
root 0.261775 22.4312 -9.22466 9.13215 1.65292 -0.579795
lowerback 1.15928 -0.90335 -3.02735
upperback 2.64725 -1.23196 1.98079
thorax 2.18016 -0.701409 3.72853
lowerneck -10.4072 0.417039 -3.36204
upperneck 27.4702 1.12685 0.708211
head 10.4742 0.252555 0.964785
rclavicle 1.09829e-014 -5.76476e-015
rhumerus -22.8721 -3.59595 -79.7097
rradius 31.0796
rwrist 27.077
rhand -17.6352 -23.0246
rfingers 7.12502
rthumb 8.62241 -52.8286
lclavicle 1.09829e-014 -5.76476e-015
lhumerus -13.5295 -19.1342 84.8884
lradius 32.0547
lwrist 29.2709
lhand -28.9423 -12.7476
lfingers 7.12502
lthumb -2.29597 17.2198
rfemur -15.7967 -8.90485 18.4384
rtibia 37.0552
rfoot 28.5999 -7.35308
rtoes 27.3485
lfemur -18.7895 9.34444 -16.2576
ltibia 33.9947
lfoot 31.5603 -4.36621
ltoes 8.25879
326
root 0.261388 22.6079 -9.14369 8.62208 1.46989 -0.62224
lowerback 1.91659 -0.857231 -3.03245
upperback 2.84728 -1.18803 1.98129
thorax 1.95757 -0.678621 3.74327
lowerneck -10.3827 0.445066 -3.28437
upperneck 27.5201 1.1634 0.652663
head 10.4879 0.269747 0.936143
rclavicle -5.71506e-015 -9.14409e-015
rhumerus -22.9609 -4.34011 -79.7316
rradius 30.7592
rwrist 27.3529
rhand -17.6781 -23.1437
rfingers 7.12502
rthumb 8.58102 -52.9493
lclavicle -5.71506e-015 -9.14409e-015
lhumerus -13.3299 -18.8811 84.8603
lradius 32.0819
lwrist 29.6071
lhand -28.9058 -12.4348
lfingers 7.12502
lthumb -2.26076 17.533
rfemur -16.4805 -8.86154 18.5182
rtibia 38.7886
rfoot 28.4198 -6.64114
rtoes 26.9216
lfemur -18.9919 9.58511 -16.292
ltibia 34.4924
lfoot 31.2644 -4.34155
ltoes 8.19632
327
root 0.260461 22.7746 -9.06027 8.20969 1.30568 -0.689629
lowerback 2.57788 -0.82142 -3.00609
upperback 3.02145 -1.15531 1.98436
thorax 1.76303 -0.660922 3.7411
lowerneck -10.3613 0.468199 -3.20078
upperneck 27.5852 1.19129 0.599659
head 10.508 0.28364 0.906489
rclavicle 2.5842e-015 -1.21259e-014
rhumerus -23.0656 -5.05354 -79.78
rradius 30.4478
rwrist 27.6382
rhand -17.7314 -23.283
rfingers 7.12502
rthumb 8.52956 -53.0907
lclavicle 2.5842e-015 -1.21259e-014
lhumerus -13.132 -18.571 84.8438
lradius 31.9965
lwrist 29.7526
lhand -28.9302 -12.0991
lfingers 7.12502
lthumb -2.28431 17.8684
rfemur -17.2575 -8.82035 18.6497
rtibia 40.3217
rfoot 28.0355 -6.18228
rtoes 26.5155
lfemur -19.2472 9.77458 -16.2951
ltibia 34.7594
lfoot 30.7757 -4.16215
ltoes 7.9485
328
root 0.258983 22.9302 -8.97464 7.91282 1.17416 -0.772564
lowerback 3.13107 -0.799119 -2.95937
upperback 3.15639 -1.13747 1.99357
thorax 1.59004 -0.650112 3.73226
lowerneck -10.3684 0.489942 -3.10269
upperneck 27.7055 1.21928 0.534249
head 10.5547 0.296855 0.870524
rclavicle -4.12478e-015 7.95139e-016
rhumerus -23.1879 -5.73571 -79.8432
rradius 30.1243
rwrist 27.9325
rhand -17.805 -23.3993
rfingers 7.12502
rthumb 8.45856 -53.2099
lclavicle -4.12478e-015 7.95139e-016
lhumerus -12.948 -18.2058 84.8578
lradius 31.7792
lwrist 29.6284
lhand -29.0049 -11.8067
lfingers 7.12502
lthumb -2.35648 18.16
rfemur -18.1438 -8.80221 18.8283
rtibia 41.6476
rfoot 27.443 -5.943
rtoes 26.1341
lfemur -19.5844 9.90576 -16.2817
ltibia 34.8232
lfoot 30.1043 -3.81844
ltoes 7.51738
329
root 0.257169 23.0739 -8.88715 7.74044 1.07761 -0.85539
lowerback 3.57203 -0.790974 -2.9105
upperback 3.2455 -1.13548 2.01049
thorax 1.43443 -0.646892 3.72891
lowerneck -10.4206 0.513658 -2.98547
upperneck 27.8974 1.25504 0.445502
head 10.6373 0.311868 0.824619
rclavicle 8.10048e-015 -5.1684e-015
rhumerus -23.3283 -6.36366 -79.9145
rradius 29.7995
rwrist 28.2011
rhand -17.8739 -23.5148
rfingers 7.12502
rthumb 8.39199 -53.3281
lclavicle 8.10048e-015 -5.1684e-015
lhumerus -12.7751 -17.7978 84.9108
lradius 31.4258
lwrist 29.2294
lhand -29.1079 -11.5895
lfingers 7.12502
lthumb -2.45588 18.3761
rfemur -19.1488 -8.82074 19.0369
rtibia 42.7712
rfoot 26.6468 -5.86816
rtoes 25.7279
lfemur -20.027 9.98012 -16.2747
ltibia 34.7214
lfoot 29.3088 -3.35939
ltoes 7.00505
330
root 0.255302 23.2053 -8.79824 7.69066 1.02006 -0.930048
lowerback 3.90533 -0.799774 -2.87078
upperback 3.2909 -1.15355 2.03903
thorax 1.29636 -0.653683 3.74187
lowerneck -10.5135 0.545593 -2.85528
upperneck 28.1397 1.3091 0.330953
head 10.7474 0.332817 0.769914
rclavicle 1.32689e-014 -1.74931e-014
rhumerus -23.4762 -6.93448 -79.9831
rradius 29.4682
rwrist 28.441
rhand -17.9497 -23.5979
rfingers 7.12502
rthumb 8.31883 -53.4141
lclavicle 1.32689e-014 -1.74931e-014
lhumerus -12.6154 -17.3419 85.0057
lradius 30.956
lwrist 28.5873
lhand -29.2585 -11.5032
lfingers 7.12502
lthumb -2.6014 18.4606
rfemur -20.2687 -8.87791 19.2648
rtibia 43.7034
rfoot 25.6791 -5.90307
rtoes 25.3064
lfemur -20.5852 9.99998 -16.2861
ltibia 34.4917
lfoot 28.4321 -2.84347
ltoes 6.45773
331
root 0.253402 23.324 -8.70842 7.74578 0.999499 -0.982409
lowerback 4.1562 -0.823442 -2.85658
upperback 3.28962 -1.19009 2.07772
thorax 1.15876 -0.669583 3.77946
lowerneck -10.6219 0.587281 -2.71913
upperneck 28.4102 1.3822 0.197452
head 10.872 0.360387 0.709772
rclavicle 5.66536e-015 7.95139e-015
rhumerus -23.6385 -7.45115 -80.04
rradius 29.1321
rwrist 28.653
rhand -18.0194 -23.6496
rfingers 7.12502
rthumb 8.25164 -53.4684
lclavicle 5.66536e-015 7.95139e-015
lhumerus -12.491 -16.8423 85.1453
lradius 30.4047
lwrist 27.7721
lhand -29.399 -11.5224
lfingers 7.12502
lthumb -2.73706 18.4398
rfemur -21.4837 -8.96205 19.492
rtibia 44.4572
rfoot 24.5919 -5.99201
rtoes 24.8564
lfemur -21.2489 9.96893 -16.3311
ltibia 34.1687
lfoot 27.5177 -2.33103
ltoes 5.90162
332
root 0.251806 23.4303 -8.61763 7.88107 1.01049 -1.01275
lowerback 4.34322 -0.861434 -2.86445
upperback 3.25596 -1.24487 2.12462
thorax 1.02587 -0.694646 3.83802
lowerneck -10.7388 0.638911 -2.59339
upperneck 28.6725 1.47187 0.0653267
head 10.9957 0.394521 0.653745
rclavicle -6.26172e-015 -9.34288e-015
rhumerus -23.8098 -7.92065 -80.085
rradius 28.8036
rwrist 28.8358
rhand -18.0909 -23.6691
rfingers 7.12502
rthumb 8.18261 -53.4906
lclavicle -6.26172e-015 -9.34288e-015
lhumerus -12.3925 -16.3201 85.3148
lradius 29.8094
lwrist 26.9145
lhand -29.5442 -11.5786
lfingers 7.12502
lthumb -2.87727 18.3818
rfemur -22.7609 -9.05723 19.7097
rtibia 45.0412
rfoot 23.4617 -6.08961
rtoes 24.3868
lfemur -21.9944 9.90588 -16.4095
ltibia 33.7819
lfoot 26.6026 -1.86704
ltoes 5.40217
333
root 0.250412 23.5238 -8.52601 8.06982 1.03979 -1.03793
lowerback 4.49092 -0.90674 -2.8764
upperback 3.19534 -1.30859 2.17877
thorax 0.888349 -0.723748 3.90657
lowerneck -10.8397 0.69689 -2.47928
upperneck 28.8996 1.56814 -0.0518892
head 11.1035 0.432579 0.605479
rclavicle -9.24349e-015 1.76918e-014
rhumerus -23.9969 -8.36843 -80.1166
rradius 28.4838
rwrist 29.017
rhand -18.1357 -23.6984
rfingers 7.12502
rthumb 8.13934 -53.5216
lclavicle -9.24349e-015 1.76918e-014
lhumerus -12.3252 -15.7967 85.5027
lradius 29.2
lwrist 26.1157
lhand -29.6578 -11.6414
lfingers 7.12502
lthumb -2.98698 18.3174
rfemur -24.0673 -9.1269 19.9283
rtibia 45.4637
rfoot 22.3555 -6.17371
rtoes 23.9056
lfemur -22.797 9.84345 -16.501
ltibia 33.3582
lfoot 25.7069 -1.48758
ltoes 4.9599
334
root 0.249568 23.6048 -8.43286 8.28415 1.07393 -1.06521
lowerback 4.61956 -0.95891 -2.88171
upperback 3.12152 -1.38071 2.23458
thorax 0.748637 -0.756627 3.97351
lowerneck -10.9426 0.764104 -2.36947
upperneck 29.0918 1.67314 -0.151731
head 11.1986 0.476516 0.565093
rclavicle 4.17448e-015 -6.75868e-015
rhumerus -24.2015 -8.7875 -80.1487
rradius 28.1878
rwrist 29.1901
rhand -18.159 -23.7107
rfingers 7.12502
rthumb 8.11686 -53.5348
lclavicle 4.17448e-015 -6.75868e-015
lhumerus -12.2916 -15.2456 85.6922
lradius 28.6085
lwrist 25.4311
lhand -29.7133 -11.6909
lfingers 7.12502
lthumb -3.04059 18.2671
rfemur -25.3615 -9.15786 20.142
rtibia 45.7273
rfoot 21.329 -6.21735
rtoes 23.4053
lfemur -23.6236 9.81091 -16.5992
ltibia 32.9226
lfoot 24.8281 -1.21671
ltoes 4.5462
335
root 0.24891 23.6726 -8.33873 8.50276 1.09677 -1.10018
lowerback 4.73518 -1.01035 -2.87526
upperback 3.05053 -1.45103 2.28658
thorax 0.618682 -0.788564 4.02985
lowerneck -11.0446 0.832306 -2.27083
upperneck 29.235 1.77158 -0.21843
head 11.2747 0.520804 0.537613
rclavicle 1.46107e-014 1.37161e-014
rhumerus -24.4154 -9.188 -80.1896
rradius 27.9221
rwrist 29.3532
rhand -18.1745 -23.7283
rfingers 7.12502
rthumb 8.10188 -53.553
lclavicle 1.46107e-014 1.37161e-014
lhumerus -12.2688 -14.7229 85.867
lradius 28.0361
lwrist 24.9337
lhand -29.7124 -11.7303
lfingers 7.12502
lthumb -3.03968 18.2277
rfemur -26.6189 -9.12682 20.351
rtibia 45.8387
rfoot 20.4184 -6.21592
rtoes 22.8992
lfemur -24.457 9.831 -16.6969
ltibia 32.4977
lfoot 23.9731 -1.07204
ltoes 4.19602
336
root 0.248478 23.7272 -8.24336 8.70579 1.10562 -1.15464
lowerback 4.84435 -1.05978 -2.84209
upperback 2.99334 -1.51742 2.33256
thorax 0.505355 -0.818618 4.06467
lowerneck -11.1519 0.898192 -2.17153
upperneck 29.3355 1.85845 -0.260124
head 11.3356 0.563426 0.517537
rclavicle 1.29707e-014 -6.75868e-015
rhumerus -24.6386 -9.57007 -80.2461
rradius 27.6811
rwrist 29.4991
rhand -18.2037 -23.7268
rfingers 7.12502
rthumb 8.07377 -53.5526
lclavicle 1.29707e-014 -6.75868e-015
lhumerus -12.2635 -14.2146 86.0214
lradius 27.4929
lwrist 24.5831
lhand -29.6545 -11.795
lfingers 7.12502
lthumb -2.98375 18.1638
rfemur -27.8098 -9.04202 20.5626
rtibia 45.8041
rfoot 19.6406 -6.16139
rtoes 22.4093
lfemur -25.2768 9.9147 -16.7812
ltibia 32.1015
lfoot 23.1051 -1.0497
ltoes 3.82872
337
root 0.248103 23.7685 -8.14705 8.8818 1.09136 -1.21406
lowerback 4.95912 -1.10258 -2.79904
upperback 2.95139 -1.57455 2.36614
thorax 0.403137 -0.844263 4.08089
lowerneck -11.2732 0.956764 -2.06869
upperneck 29.4135 1.92671 -0.277946
head 11.3907 0.601126 0.503272
rclavicle 2.28602e-014 -1.11319e-014
rhumerus -24.8743 -9.92059 -80.3248
rradius 27.4687
rwrist 29.6122
rhand -18.2343 -23.7288
rfingers 7.12502
rthumb 8.04417 -53.5557
lclavicle 2.28602e-014 -1.11319e-014
lhumerus -12.2739 -13.7322 86.1553
lradius 26.9755
lwrist 24.3427
lhand -29.5343 -11.8406
lfingers 7.12502
lthumb -2.86774 18.1199
rfemur -28.9211 -8.91488 20.7597
rtibia 45.6332
rfoot 18.9957 -6.04982
rtoes 21.9178
lfemur -26.0731 10.0652 -16.8686
ltibia 31.7475
lfoot 22.2277 -1.14278
ltoes 3.51554
